<?xml version="1.0" encoding="utf-8"?>
<!-- Generator: Adobe Illustrator 24.0.0, SVG Export Plug-In . SVG Version: 6.00 Build 0)  -->
<svg version="1.1" id="Calque_1" xmlns="http://www.w3.org/2000/svg" xmlns:xlink="http://www.w3.org/1999/xlink" x="0px" y="0px"
	 viewBox="0 0 102 102" style="enable-background:new 0 0 102 102;" xml:space="preserve">
<style type="text/css">
	.st0{fill:#FEE85E;}
	.st1{fill:#6FA03C;}
	.st2{fill:#4D6D29;}
	.st3{fill:#FFE85F;}
	.st4{fill:#EDD859;}
	.st5{fill:#618D34;}
	.st6{fill:#FFFFFF;}
	.st7{fill:#444444;}
	.st8{fill:#FEED7B;}
	.st9{fill:#88B25C;}
	.st10{fill:#A5923F;}
	.st11{fill:#892015;}
	.st12{fill:#D1371E;}
	.st13{fill:#E87853;}
	.st14{fill:#BF3119;}
</style>
<g id="logo">
	<path class="st0" d="M65.1,57l9.2-1.2c7.9-3.8,5.4-35.3-9.7-44.5s-35.8-9-42.1,16.6S42.1,59,42.1,59s-2.4,3.1,0,0
		c2.4-3.1,4.6-5.2,4.6-5.2l2.9,0.9C58.8,58.6,65.1,57,65.1,57"/>
	<path class="st1" d="M44,55.3c0,0-6.1,10.8-7.6,13.6c0,0-10.7,8.9-12.4,13.7c0,0,7.3,22.6,36.7,9.8S78,56.9,78,56.9
		s-5.5-8.1-12.9-0.6c0,0-9.3-4.4-15.9-4.4C49.1,51.9,44,55.3,44,55.3z"/>
	<path class="st2" d="M69.9,60.1c0,0,0.2,3.4-1.4,9.8c0,0,2-2.3,2.5-4.8c0,0,6.3,4.7,4,17.4l0.8-1.1c0,0,3.4-9.7-5-18
		C70.9,63.4,71.2,61.6,69.9,60.1z"/>
	<path class="st2" d="M62.8,60.5c0,0,8.1-11,16.3-0.3l0-0.1c-0.6-2-1.2-3.2-1.2-3.2s-5.5-8.1-12.9-0.6c0,0-1.5,2.1-2,3.7L62.8,60.5z
		"/>
	<path class="st3" d="M64.3,57.3c0,0-4.6,1.8-15.1-2.9l-2-0.9l1.1-1.9c0,0,7.3,0.2,16.9,4.5L64.3,57.3z"/>
	<path class="st4" d="M45.9,9.1c0,0,18.4-0.8,25.7,15.9s3.3,29,3.3,29s-4.5-3.1-9.7,2.2c0,0-2.9,2.7-16.9-3
		C48.2,53.2,23,26.6,45.9,9.1z"/>
	<path class="st5" d="M29.1,84.3l-4.6-0.5c2,4.4,10.7,19.5,35.6,8.9c-7.6,1.3-19.7-13-19.7-13c-1.3-0.1-3.4,3.2-4.1,3.4
		c-0.7,0.3-1.4,1.5-4.7,1.3C28.2,84.3,29.1,84.3,29.1,84.3z"/>
	<path class="st5" d="M56,74.3c0,0,4-0.3,7-14.3c0.2-0.8,0.7-1.6,1.4-2.6c-2.7,0.6-4.9,0.2-7.5-0.2L56,74.3z"/>
	<path class="st2" d="M29.3,83.8l-5.2-1.4c0,0.1-0.1,0.2-0.1,0.2c0,0,0.2,0.5,0.5,1.2h0.1c0,0,3.3,0.8,4.5,0.6L29.3,83.8z"/>
	<path class="st2" d="M36.2,83.4c0,0,2.2-2.5,4.2-3.6c0,0-1.3-0.6-2.1-0.4c-0.8,0.2-2.6,3.7-2.6,4C35.7,83.4,35.8,83.5,36.2,83.4z"
		/>
	<ellipse class="st6" cx="55.8" cy="64.9" rx="2.9" ry="9.4"/>
	<ellipse class="st7" cx="49" cy="68.5" rx="0.8" ry="3.1"/>
	<ellipse class="st7" cx="56.4" cy="66.9" rx="0.8" ry="3.1"/>
	<path class="st8" d="M34.6,12.5c0,0-14.2,18.9-2,34.7s-2.6,4.5-5.1,1S17.7,25.7,34.6,12.5z"/>
	<path class="st9" d="M44.9,57.9c0,0-4.4,7.5-5.4,10.4c-1,2.9-6.9,3.7-7.7,9.7c0,0-0.5,2.3-6.5,4.1c0,0,8.8-10.6,12.1-13
		C37.3,69,40.5,62.1,44.9,57.9z"/>
	<path class="st10" d="M42.6,50.8l0.3-0.5c0,0-0.3,0.1-0.9,0.2c-2.2,0.4-8.2,0.7-13.2-7.1c0,0,3.5,9.7,13.2,8.8L42.6,50.8z"/>
	<path class="st10" d="M42.3,47.9c0,0-8-7.3-3.9-20c0,0-0.7,12.5,6.1,19.6L42.3,47.9z"/>
	<path class="st10" d="M46.1,49.5c0,0-0.9-4.8,11.1-12c0,0-11.7,6-13.2,11.2l2.5,0.5"/>
	<ellipse transform="matrix(0.9003 -0.4352 0.4352 0.9003 -17.7284 24.6303)" class="st11" cx="44.9" cy="51" rx="3" ry="7.1"/>
	<ellipse transform="matrix(0.9003 -0.4352 0.4352 0.9003 -18.0162 24.2812)" class="st12" cx="44" cy="51.5" rx="2.8" ry="6.3"/>
	<path class="st13" d="M42.2,46.2c0,0-1.8,3.5,1.6,7.4c0,0-0.9,0.8-0.7,1.5c0,0-2.4-3-2.7-6.2C40.3,46.3,41.2,45.5,42.2,46.2z"/>
	<path class="st13" d="M44,53.8c0,0-0.8,0.8-0.7,1.4c0,0,0.2,0.3,0.3,0.4c0,0,0.5-0.9,0.9-1.1C44.6,54.5,44,53.8,44,53.8z"/>
	<path class="st14" d="M42.4,46.4c0,0-2.4,5.5,5,9.2C47.4,55.5,46.8,48.4,42.4,46.4z"/>
</g>
</svg>
