<?xml version="1.0" encoding="utf-8"?>
<!-- Generator: Adobe Illustrator 24.0.0, SVG Export Plug-In . SVG Version: 6.00 Build 0)  -->
<svg version="1.1" id="Calque_1" xmlns="http://www.w3.org/2000/svg" xmlns:xlink="http://www.w3.org/1999/xlink" x="0px" y="0px"
	 viewBox="0 0 102 102" style="enable-background:new 0 0 102 102;" xml:space="preserve">
<style type="text/css">
	.st0{fill:#FEE85E;}
	.st1{fill:#6FA03C;}
	.st2{fill:#4D6D29;}
	.st3{fill:#FFE85F;}
	.st4{fill:#EDD859;}
	.st5{fill:#618D34;}
	.st6{fill:#FFFFFF;}
	.st7{fill:#444444;}
	.st8{fill:#FEED7B;}
	.st9{fill:#88B25C;}
	.st10{fill:#A5923F;}
	.st11{fill:#892015;}
	.st12{fill:#D1371E;}
	.st13{fill:#E87853;}
	.st14{fill:#BF3119;}
	.st15{fill:none;stroke:#6FA03C;stroke-width:16;stroke-miterlimit:10;}
</style>
<g id="logo">
	<path class="st0" d="M84.6,57.7L95,56.3c8.9-4.3,6.1-39.7-10.9-50.1S43.8-3.9,36.7,25S58.7,60,58.7,60s-2.8,3.5,0,0
		c2.8-3.5,5.1-5.9,5.1-5.9l3.3,1C77.5,59.5,84.6,57.7,84.6,57.7"/>
	<path class="st1" d="M60.8,55.8c0,0-6.8,12.1-8.5,15.3c0,0-12,10-13.9,15.5c0,0,8.2,25.4,41.3,11s19.4-40,19.4-40
		s-6.2-9.1-14.6-0.7c0,0-10.5-4.9-17.8-4.9C66.6,52,60.8,55.8,60.8,55.8z"/>
	<path class="st2" d="M89.9,61.2c0,0,0.3,3.9-1.5,11c0,0,2.2-2.6,2.8-5.4c0,0,7.1,5.3,4.5,19.6l0.9-1.2c0,0,3.9-10.9-5.6-20.2
		C91,64.9,91.4,63,89.9,61.2z"/>
	<path class="st2" d="M82,61.7c0,0,9.1-12.4,18.3-0.3l0-0.1C99.7,59,99,57.6,99,57.6s-6.2-9.1-14.6-0.7c0,0-1.7,2.4-2.3,4.2L82,61.7
		z"/>
	<path class="st3" d="M83.7,58.1c0,0-5.2,2-17-3.3l-2.3-1l1.2-2.1c0,0,8.3,0.2,19,5.1L83.7,58.1z"/>
	<path class="st4" d="M62.9,3.8c0,0,20.7-0.9,28.9,17.8s3.7,32.6,3.7,32.6s-5-3.5-10.9,2.5c0,0-3.2,3-19-3.4
		C65.6,53.4,37.2,23.6,62.9,3.8z"/>
	<path class="st5" d="M44.1,88.4l-5.2-0.6c2.2,4.9,12.1,21.9,40,10c-8.6,1.5-22.1-14.6-22.1-14.6c-1.4-0.1-3.9,3.5-4.6,3.9
		c-0.7,0.3-1.5,1.6-5.3,1.4C43,88.4,44.1,88.4,44.1,88.4z"/>
	<path class="st5" d="M74.3,77.2c0,0,4.5-0.4,7.9-16.1c0.3-0.9,0.7-1.8,1.5-2.9c-3,0.7-5.6,0.2-8.5-0.3L74.3,77.2z"/>
	<path class="st2" d="M44.3,87.9l-5.8-1.5c0,0.1-0.1,0.2-0.1,0.3c0,0,0.2,0.5,0.6,1.4h0.1c0,0,3.7,0.9,5,0.7L44.3,87.9z"/>
	<path class="st2" d="M52.1,87.4c0,0,2.4-2.8,4.7-4.1c0,0-1.4-0.7-2.3-0.4c-0.9,0.2-2.9,4.2-2.9,4.5C51.5,87.4,51.6,87.6,52.1,87.4z
		"/>
	<ellipse class="st6" cx="74" cy="66.7" rx="3.3" ry="10.6"/>
	<ellipse class="st7" cx="66.5" cy="70.7" rx="0.9" ry="3.5"/>
	<ellipse class="st7" cx="74.7" cy="68.9" rx="0.9" ry="3.5"/>
	<path class="st8" d="M50.3,7.6c0,0-15.9,21.2-2.3,39s-2.9,5-5.7,1.1S31.2,22.5,50.3,7.6z"/>
	<path class="st9" d="M61.8,58.7c0,0-4.9,8.4-6.1,11.7c-1.1,3.3-7.8,4.2-8.7,10.9c0,0-0.5,2.6-7.3,4.6c0,0,9.9-12,13.6-14.6
		C53.3,71.3,56.9,63.4,61.8,58.7z"/>
	<path class="st10" d="M59.2,50.7l0.3-0.6c0,0-0.4,0.1-1,0.3c-2.5,0.5-9.2,0.7-14.9-8c0,0,4,10.9,14.8,9.9L59.2,50.7z"/>
	<path class="st10" d="M58.9,47.6c0,0-9-8.2-4.3-22.6c0,0-0.7,14.1,6.9,22.1L58.9,47.6z"/>
	<path class="st10" d="M63.2,49.3c0,0-1-5.4,12.5-13.4c0,0-13.2,6.7-14.8,12.7l2.8,0.6"/>
	<ellipse transform="matrix(0.9003 -0.4352 0.4352 0.9003 -16.0408 31.998)" class="st11" cx="61.8" cy="51" rx="3.4" ry="7.9"/>
	<ellipse transform="matrix(0.9003 -0.4352 0.4352 0.9003 -16.3646 31.6054)" class="st12" cx="60.8" cy="51.5" rx="3.1" ry="7.1"/>
	<path class="st13" d="M58.8,45.6c0,0-2.1,4,1.8,8.3c0,0-1,0.9-0.7,1.6c0,0-2.7-3.4-3-7C56.6,45.7,57.7,44.9,58.8,45.6z"/>
	<path class="st13" d="M60.8,54.2c0,0-0.9,0.9-0.7,1.5c0,0,0.2,0.3,0.3,0.4c0,0,0.6-1,1-1.2C61.5,54.9,60.8,54.2,60.8,54.2z"/>
	<path class="st14" d="M59,45.8c0,0-2.7,6.2,5.6,10.4C64.6,56.1,64,48.1,59,45.8z"/>
</g>
<g>
	<g>
		<line class="st15" x1="0" y1="65.4" x2="18.9" y2="65.4"/>
		<g>
			<polygon class="st1" points="12.3,87.7 51,65.4 12.3,43 			"/>
		</g>
	</g>
</g>
</svg>
